<svg width="54" height="59" viewBox="0 0 54 59" fill="none" xmlns="http://www.w3.org/2000/svg">
<path d="M25.8044 42.4042C25.8044 41.9616 26.1632 41.6028 26.6058 41.6028C27.0484 41.6028 27.4072 41.9616 27.4072 42.4042V44.0069C27.4072 44.4495 27.0484 44.8083 26.6058 44.8083C26.1632 44.8083 25.8044 44.4495 25.8044 44.0069V42.4042Z" fill="#2D9CDB"/>
<path d="M18.8673 52.4991C23.6674 52.4991 26.1714 55.2075 26.7895 56.5616C27.6041 55.3485 30.2954 52.9222 34.543 52.9222C39.8526 52.9222 42.2124 54.7843 50.0503 54.3611C51.8176 54.2657 52.4943 54.1918 52.4943 51.3141C52.4943 48.4365 53 17.3747 53 14.497C53 11.6193 50.7245 11.7886 49.376 11.7886H46.6791C43.1394 11.7886 39.4312 9.33415 34.543 9.33415C30.6325 9.33415 27.857 11.7604 26.7894 12.9735C26.6209 12.3247 26.1489 11.0607 23.5868 7.81068C20.4115 3.78259 14.5848 2.08429 11.9394 1.31324L11.8722 1.29364C9.25953 0.531905 8.92244 1.209 8.92244 3.83275V11.7886H3.69718C0.915997 11.7886 1.00028 12.8889 1.00028 15.0048V51.3141C1.00028 53.2608 1.84306 54.1918 3.69718 54.1918H6.80449C11.0785 54.1918 12.7992 52.4991 18.8673 52.4991Z" stroke="#2D9CDB" stroke-width="2"/>
<path d="M8.83534 11.6851L8.83534 37.2808C8.83534 37.4772 8.83534 40.2597 8.83534 41.2701C8.83534 42.533 8.83534 44.1328 10.8514 44.8063C13.2487 45.6073 16.7219 45.3426 20.5955 47.5528C23.6432 49.2917 24.9915 51.3743 26.6436 54.0686L26.6436 42.6714M26.6436 12.0479L26.6436 51.5755" stroke="#2D9CDB" stroke-width="2"/>
</svg>
