<svg width="58" height="55" viewBox="0 0 58 55" fill="none" xmlns="http://www.w3.org/2000/svg">
<path d="M2 3C2 1.89543 2.89543 1 4 1H13.9902C14.5171 1 15.0227 1.20792 15.3972 1.57858L24.407 10.4969C24.7865 10.8725 25 11.3843 25 11.9183V23.6667C25 24.7712 24.1046 25.6667 23 25.6667H4C2.89543 25.6667 2 24.7712 2 23.6667V3Z" stroke="#2D9CDB" stroke-width="2"/>
<path d="M14.335 0.78418V7.05869V11.3332C14.335 12.4378 15.2304 13.3332 16.335 13.3332L24.5295 13.3332" stroke="#2D9CDB" stroke-width="2"/>
<path d="M34 30C34 28.8954 34.8954 28 36 28H45.9793C46.5105 28 47.0198 28.2113 47.395 28.5874L56.4158 37.628C56.7899 38.003 57 38.511 57 39.0407V51C57 52.1046 56.1046 53 55 53H36C34.8954 53 34 52.1046 34 51V30Z" stroke="#2D9CDB" stroke-width="2"/>
<path d="M46.335 27.7942V34.1471V38.5001C46.335 39.6046 47.2304 40.5001 48.335 40.5001L56.5295 40.5001" stroke="#2D9CDB" stroke-width="2"/>
<path d="M19 54C9.05887 54 1 45.9411 1 36" stroke="#2D9CDB" stroke-width="2"/>
<path d="M35 3C44.9411 3 53 11.0589 53 21" stroke="#2D9CDB" stroke-width="2"/>
</svg>
