<svg width="186" height="40" viewBox="0 0 186 40" fill="none" xmlns="http://www.w3.org/2000/svg">
<path d="M5.6653 28.8391C1.40889 23.0246 1.7196 12.1325 2.407 7.41325L19.3996 2L36.593 7.41325C37.2804 12.1383 37.5911 23.0439 33.3347 28.8657C29.0783 34.6874 22.405 37.3809 19.6004 38L19.3996 37.9621C16.595 37.3438 9.92171 34.6536 5.6653 28.8391Z" stroke="#B0B0B0" stroke-width="3.5"/>
<rect x="12.5436" y="12" width="9.44258" height="3.59723" rx="0.7" transform="rotate(45 12.5436 12)" fill="#B0B0B0"/>
<rect x="10.0739" y="22.8823" width="9.44295" height="3.59167" rx="0.7" transform="rotate(-45 10.0739 22.8823)" fill="#B0B0B0"/>
<rect x="18.1453" y="23.9238" width="8.85473" height="3.59723" rx="0.7" fill="#B0B0B0"/>
<path d="M53.546 15.6218V11.7998H69.744V15.6218H63.894V29.9998H59.422V15.6218H53.546Z" fill="#9F9F9F"/>
<path d="M81.1759 28.1018C80.3092 28.8644 79.4339 29.4191 78.5499 29.7658C77.6659 30.0951 76.6606 30.2598 75.5339 30.2598C74.5459 30.2598 73.6186 30.0864 72.7519 29.7398C71.9026 29.3758 71.1572 28.8818 70.5159 28.2578C69.8746 27.6338 69.3719 26.8971 69.0079 26.0478C68.6439 25.1984 68.4619 24.2884 68.4619 23.3178C68.4619 22.3298 68.6352 21.4111 68.9819 20.5618C69.3286 19.7124 69.7966 18.9758 70.3859 18.3518C70.9926 17.7278 71.7119 17.2424 72.5439 16.8958C73.3759 16.5318 74.2686 16.3498 75.2219 16.3498C76.1926 16.3498 77.0766 16.5318 77.8739 16.8958C78.6886 17.2424 79.3819 17.7278 79.9539 18.3518C80.5432 18.9758 81.0026 19.7298 81.3319 20.6138C81.6612 21.4804 81.8259 22.4338 81.8259 23.4738V24.3838H72.5959C72.7866 25.1291 73.1679 25.7358 73.7399 26.2038C74.3119 26.6718 74.9792 26.9058 75.7419 26.9058C76.2966 26.9058 76.7992 26.8104 77.2499 26.6198C77.7179 26.4291 78.0992 26.1518 78.3939 25.7878L81.1759 28.1018ZM75.1959 19.6258C74.5372 19.6258 73.9826 19.8338 73.5319 20.2498C73.0812 20.6658 72.7692 21.2464 72.5959 21.9918H77.9259C77.7526 21.2638 77.4232 20.6918 76.9379 20.2758C76.4526 19.8424 75.8719 19.6258 75.1959 19.6258Z" fill="#9F9F9F"/>
<path d="M88.4506 30.2078C87.0986 30.2078 85.9893 29.8351 85.1226 29.0898C84.2559 28.3271 83.8226 27.3478 83.8226 26.1518C83.8226 24.9211 84.2819 23.9678 85.2006 23.2918C86.1193 22.5984 87.4019 22.2518 89.0486 22.2518C89.5339 22.2518 90.0279 22.3038 90.5306 22.4078C91.0333 22.4944 91.5793 22.6504 92.1686 22.8758V21.7838C92.1686 21.1424 91.9433 20.6571 91.4926 20.3278C91.0593 19.9984 90.4006 19.8338 89.5166 19.8338C89.0139 19.8338 88.4506 19.9118 87.8266 20.0678C87.2199 20.2064 86.5266 20.4404 85.7466 20.7698L84.2906 17.8318C85.3826 17.3464 86.4313 16.9824 87.4366 16.7398C88.4593 16.4971 89.4646 16.3758 90.4526 16.3758C92.3073 16.3758 93.7459 16.8178 94.7686 17.7018C95.8086 18.5858 96.3286 19.8251 96.3286 21.4198V29.9998H92.1686V28.8298C91.5793 29.3151 90.9899 29.6704 90.4006 29.8958C89.8113 30.1038 89.1613 30.2078 88.4506 30.2078ZM87.6966 26.0738C87.6966 26.5071 87.8786 26.8451 88.2426 27.0878C88.6066 27.3131 89.1093 27.4258 89.7506 27.4258C90.1839 27.4258 90.5999 27.3738 90.9986 27.2698C91.4146 27.1484 91.8046 26.9751 92.1686 26.7498V25.0338C91.7873 24.9471 91.3973 24.8778 90.9986 24.8258C90.6173 24.7738 90.2359 24.7478 89.8546 24.7478C89.1613 24.7478 88.6239 24.8604 88.2426 25.0858C87.8786 25.3111 87.6966 25.6404 87.6966 26.0738Z" fill="#9F9F9F"/>
<path d="M99.5033 29.9998V16.5838H103.715V18.7158C104.201 17.9531 104.781 17.3724 105.457 16.9738C106.133 16.5751 106.879 16.3758 107.693 16.3758C108.56 16.3758 109.323 16.6011 109.981 17.0518C110.64 17.5024 111.134 18.1091 111.463 18.8718C111.983 18.0744 112.616 17.4591 113.361 17.0258C114.107 16.5924 114.939 16.3758 115.857 16.3758C117.088 16.3758 118.093 16.8178 118.873 17.7018C119.671 18.5858 120.069 19.7124 120.069 21.0818V29.9998H115.857V21.9138C115.857 21.2378 115.667 20.7004 115.285 20.3018C114.921 19.8858 114.445 19.6778 113.855 19.6778C113.474 19.6778 113.119 19.7644 112.789 19.9378C112.477 20.0938 112.183 20.3538 111.905 20.7178V29.9998H107.693V21.9138C107.693 21.2378 107.503 20.7004 107.121 20.3018C106.757 19.8858 106.281 19.6778 105.691 19.6778C105.31 19.6778 104.955 19.7644 104.625 19.9378C104.296 20.1111 103.993 20.3711 103.715 20.7178V29.9998H99.5033Z" fill="#9F9F9F"/>
<path d="M123.685 27.5038L125.973 24.2018C127.221 25.0858 128.296 25.7098 129.197 26.0738C130.099 26.4378 130.991 26.6198 131.875 26.6198C132.829 26.6198 133.583 26.4464 134.137 26.0998C134.692 25.7358 134.969 25.2764 134.969 24.7218C134.969 24.1844 134.787 23.7771 134.423 23.4998C134.077 23.2224 133.461 22.9971 132.577 22.8238L128.703 22.1478C127.265 21.8704 126.155 21.3071 125.375 20.4578C124.613 19.6084 124.231 18.5511 124.231 17.2858C124.231 15.5351 124.873 14.1398 126.155 13.0998C127.438 12.0598 129.206 11.5398 131.459 11.5398C132.863 11.5398 134.224 11.7564 135.541 12.1898C136.859 12.6058 137.985 13.1864 138.921 13.9318L136.659 17.1818C135.775 16.5058 134.883 16.0031 133.981 15.6738C133.097 15.3444 132.179 15.1798 131.225 15.1798C130.341 15.1798 129.657 15.3444 129.171 15.6738C128.686 16.0031 128.443 16.4104 128.443 16.8958C128.443 17.3464 128.599 17.7018 128.911 17.9618C129.241 18.2218 129.769 18.4124 130.497 18.5338L134.137 19.1578C135.836 19.4524 137.127 20.0418 138.011 20.9258C138.895 21.7924 139.337 22.9191 139.337 24.3058C139.337 26.0564 138.635 27.4864 137.231 28.5958C135.827 29.7051 133.938 30.2598 131.563 30.2598C130.125 30.2598 128.747 30.0258 127.429 29.5578C126.129 29.0724 124.881 28.3878 123.685 27.5038Z" fill="#9F9F9F"/>
<path d="M141.867 29.9998V11.4098L146.079 10.7598V18.7678C146.599 17.9878 147.214 17.3984 147.925 16.9998C148.653 16.5838 149.45 16.3758 150.317 16.3758C151.617 16.3758 152.683 16.8091 153.515 17.6758C154.347 18.5251 154.763 19.6171 154.763 20.9518V29.9998H150.551V22.1738C150.551 21.4284 150.343 20.8304 149.927 20.3798C149.528 19.9118 148.991 19.6778 148.315 19.6778C147.864 19.6778 147.448 19.7731 147.067 19.9638C146.703 20.1371 146.373 20.4144 146.079 20.7958V29.9998H141.867Z" fill="#9F9F9F"/>
<path d="M170.055 28.1018C169.188 28.8644 168.313 29.4191 167.429 29.7658C166.545 30.0951 165.539 30.2598 164.413 30.2598C163.425 30.2598 162.497 30.0864 161.631 29.7398C160.781 29.3758 160.036 28.8818 159.395 28.2578C158.753 27.6338 158.251 26.8971 157.887 26.0478C157.523 25.1984 157.341 24.2884 157.341 23.3178C157.341 22.3298 157.514 21.4111 157.861 20.5618C158.207 19.7124 158.675 18.9758 159.265 18.3518C159.871 17.7278 160.591 17.2424 161.423 16.8958C162.255 16.5318 163.147 16.3498 164.101 16.3498C165.071 16.3498 165.955 16.5318 166.753 16.8958C167.567 17.2424 168.261 17.7278 168.833 18.3518C169.422 18.9758 169.881 19.7298 170.211 20.6138C170.54 21.4804 170.705 22.4338 170.705 23.4738V24.3838H161.475C161.665 25.1291 162.047 25.7358 162.619 26.2038C163.191 26.6718 163.858 26.9058 164.621 26.9058C165.175 26.9058 165.678 26.8104 166.129 26.6198C166.597 26.4291 166.978 26.1518 167.273 25.7878L170.055 28.1018ZM164.075 19.6258C163.416 19.6258 162.861 19.8338 162.411 20.2498C161.96 20.6658 161.648 21.2464 161.475 21.9918H166.805C166.631 21.2638 166.302 20.6918 165.817 20.2758C165.331 19.8424 164.751 19.6258 164.075 19.6258Z" fill="#9F9F9F"/>
<path d="M177.538 10.7598V29.9998H173.326V11.4098L177.538 10.7598Z" fill="#9F9F9F"/>
<path d="M185.028 10.7598V29.9998H180.816V11.4098L185.028 10.7598Z" fill="#9F9F9F"/>
</svg>
