<svg width="131" height="21" viewBox="0 0 131 21" fill="none" xmlns="http://www.w3.org/2000/svg">
<path d="M0.546021 5.62201V1.80001H16.744V5.62201H10.894V20H6.42202V5.62201H0.546021Z" fill="black"/>
<path d="M28.1759 18.102C27.3092 18.8647 26.4339 19.4193 25.5499 19.766C24.6659 20.0953 23.6606 20.26 22.5339 20.26C21.5459 20.26 20.6186 20.0867 19.7519 19.74C18.9026 19.376 18.1572 18.882 17.5159 18.258C16.8746 17.634 16.3719 16.8973 16.0079 16.048C15.6439 15.1987 15.4619 14.2887 15.4619 13.318C15.4619 12.33 15.6352 11.4113 15.9819 10.562C16.3286 9.71268 16.7966 8.97601 17.3859 8.35201C17.9926 7.72801 18.7119 7.24268 19.5439 6.89601C20.3759 6.53201 21.2686 6.35001 22.2219 6.35001C23.1926 6.35001 24.0766 6.53201 24.8739 6.89601C25.6886 7.24268 26.3819 7.72801 26.9539 8.35201C27.5432 8.97601 28.0026 9.73001 28.3319 10.614C28.6612 11.4807 28.8259 12.434 28.8259 13.474V14.384H19.5959C19.7866 15.1293 20.1679 15.736 20.7399 16.204C21.3119 16.672 21.9792 16.906 22.7419 16.906C23.2966 16.906 23.7992 16.8107 24.2499 16.62C24.7179 16.4293 25.0992 16.152 25.3939 15.788L28.1759 18.102ZM22.1959 9.62601C21.5372 9.62601 20.9826 9.83401 20.5319 10.25C20.0812 10.666 19.7692 11.2467 19.5959 11.992H24.9259C24.7526 11.264 24.4232 10.692 23.9379 10.276C23.4526 9.84268 22.8719 9.62601 22.1959 9.62601Z" fill="black"/>
<path d="M35.4506 20.208C34.0986 20.208 32.9893 19.8353 32.1226 19.09C31.2559 18.3273 30.8226 17.348 30.8226 16.152C30.8226 14.9213 31.2819 13.968 32.2006 13.292C33.1193 12.5987 34.4019 12.252 36.0486 12.252C36.5339 12.252 37.0279 12.304 37.5306 12.408C38.0333 12.4947 38.5793 12.6507 39.1686 12.876V11.784C39.1686 11.1427 38.9433 10.6573 38.4926 10.328C38.0593 9.99868 37.4006 9.83401 36.5166 9.83401C36.0139 9.83401 35.4506 9.91201 34.8266 10.068C34.2199 10.2067 33.5266 10.4407 32.7466 10.77L31.2906 7.83201C32.3826 7.34668 33.4313 6.98268 34.4366 6.74001C35.4593 6.49734 36.4646 6.37601 37.4526 6.37601C39.3073 6.37601 40.7459 6.81801 41.7686 7.70201C42.8086 8.58601 43.3286 9.82534 43.3286 11.42V20H39.1686V18.83C38.5793 19.3153 37.9899 19.6707 37.4006 19.896C36.8113 20.104 36.1613 20.208 35.4506 20.208ZM34.6966 16.074C34.6966 16.5073 34.8786 16.8453 35.2426 17.088C35.6066 17.3133 36.1093 17.426 36.7506 17.426C37.1839 17.426 37.5999 17.374 37.9986 17.27C38.4146 17.1487 38.8046 16.9753 39.1686 16.75V15.034C38.7873 14.9473 38.3973 14.878 37.9986 14.826C37.6173 14.774 37.2359 14.748 36.8546 14.748C36.1613 14.748 35.6239 14.8607 35.2426 15.086C34.8786 15.3113 34.6966 15.6407 34.6966 16.074Z" fill="black"/>
<path d="M46.5033 20V6.58401H50.7153V8.71601C51.2006 7.95334 51.7813 7.37268 52.4573 6.97401C53.1333 6.57534 53.8786 6.37601 54.6933 6.37601C55.5599 6.37601 56.3226 6.60134 56.9813 7.05201C57.6399 7.50268 58.1339 8.10934 58.4633 8.87201C58.9833 8.07468 59.6159 7.45934 60.3613 7.02601C61.1066 6.59268 61.9386 6.37601 62.8573 6.37601C64.0879 6.37601 65.0933 6.81801 65.8733 7.70201C66.6706 8.58601 67.0693 9.71268 67.0693 11.082V20H62.8573V11.914C62.8573 11.238 62.6666 10.7007 62.2853 10.302C61.9213 9.88601 61.4446 9.67801 60.8553 9.67801C60.4739 9.67801 60.1186 9.76468 59.7893 9.93801C59.4773 10.094 59.1826 10.354 58.9053 10.718V20H54.6933V11.914C54.6933 11.238 54.5026 10.7007 54.1213 10.302C53.7573 9.88601 53.2806 9.67801 52.6913 9.67801C52.3099 9.67801 51.9546 9.76468 51.6253 9.93801C51.2959 10.1113 50.9926 10.3713 50.7153 10.718V20H46.5033Z" fill="black"/>
<path d="M69.0995 17.504L71.3875 14.202C72.6355 15.086 73.7102 15.71 74.6115 16.074C75.5128 16.438 76.4055 16.62 77.2895 16.62C78.2428 16.62 78.9968 16.4467 79.5515 16.1C80.1062 15.736 80.3835 15.2767 80.3835 14.722C80.3835 14.1847 80.2015 13.7773 79.8375 13.5C79.4908 13.2227 78.8755 12.9973 77.9915 12.824L74.1175 12.148C72.6788 11.8707 71.5695 11.3073 70.7895 10.458C70.0268 9.60868 69.6455 8.55134 69.6455 7.28601C69.6455 5.53534 70.2868 4.14001 71.5695 3.10001C72.8522 2.06001 74.6202 1.54001 76.8735 1.54001C78.2775 1.54001 79.6382 1.75668 80.9555 2.19001C82.2728 2.60601 83.3995 3.18668 84.3355 3.93201L82.0735 7.18201C81.1895 6.50601 80.2968 6.00334 79.3955 5.67401C78.5115 5.34468 77.5928 5.18001 76.6395 5.18001C75.7555 5.18001 75.0708 5.34468 74.5855 5.67401C74.1002 6.00334 73.8575 6.41068 73.8575 6.89601C73.8575 7.34668 74.0135 7.70201 74.3255 7.96201C74.6548 8.22201 75.1835 8.41268 75.9115 8.53401L79.5515 9.15801C81.2502 9.45268 82.5415 10.042 83.4255 10.926C84.3095 11.7927 84.7515 12.9193 84.7515 14.306C84.7515 16.0567 84.0495 17.4867 82.6455 18.596C81.2415 19.7053 79.3522 20.26 76.9775 20.26C75.5388 20.26 74.1608 20.026 72.8435 19.558C71.5435 19.0727 70.2955 18.388 69.0995 17.504Z" fill="black"/>
<path d="M87.2806 20V1.41001L91.4926 0.76001V8.76801C92.0126 7.98801 92.6279 7.39868 93.3386 7.00001C94.0666 6.58401 94.8639 6.37601 95.7306 6.37601C97.0306 6.37601 98.0966 6.80934 98.9286 7.67601C99.7606 8.52534 100.177 9.61734 100.177 10.952V20H95.9646V12.174C95.9646 11.4287 95.7566 10.8307 95.3406 10.38C94.9419 9.91201 94.4046 9.67801 93.7286 9.67801C93.2779 9.67801 92.8619 9.77334 92.4806 9.96401C92.1166 10.1373 91.7873 10.4147 91.4926 10.796V20H87.2806Z" fill="black"/>
<path d="M115.469 18.102C114.602 18.8647 113.727 19.4193 112.843 19.766C111.959 20.0953 110.954 20.26 109.827 20.26C108.839 20.26 107.912 20.0867 107.045 19.74C106.196 19.376 105.45 18.882 104.809 18.258C104.168 17.634 103.665 16.8973 103.301 16.048C102.937 15.1987 102.755 14.2887 102.755 13.318C102.755 12.33 102.928 11.4113 103.275 10.562C103.622 9.71268 104.09 8.97601 104.679 8.35201C105.286 7.72801 106.005 7.24268 106.837 6.89601C107.669 6.53201 108.562 6.35001 109.515 6.35001C110.486 6.35001 111.37 6.53201 112.167 6.89601C112.982 7.24268 113.675 7.72801 114.247 8.35201C114.836 8.97601 115.296 9.73001 115.625 10.614C115.954 11.4807 116.119 12.434 116.119 13.474V14.384H106.889C107.08 15.1293 107.461 15.736 108.033 16.204C108.605 16.672 109.272 16.906 110.035 16.906C110.59 16.906 111.092 16.8107 111.543 16.62C112.011 16.4293 112.392 16.152 112.687 15.788L115.469 18.102ZM109.489 9.62601C108.83 9.62601 108.276 9.83401 107.825 10.25C107.374 10.666 107.062 11.2467 106.889 11.992H112.219C112.046 11.264 111.716 10.692 111.231 10.276C110.746 9.84268 110.165 9.62601 109.489 9.62601Z" fill="black"/>
<path d="M122.952 0.76001V20H118.74V1.41001L122.952 0.76001Z" fill="black"/>
<path d="M130.442 0.76001V20H126.23V1.41001L130.442 0.76001Z" fill="black"/>
</svg>
